# xmcd CD database file
#
# Track frame offsets:
#	150
#	2778
#	19068
#	40681
#	55218
#	72863
#	87336
#	104595
#	108071
#	122461
#	137024
#	141763
#	158928
#	175276
#	193362
#	218996
#	235569
#
# Disc length: 3203 seconds
#
# Revision: 0
# Processed by: cddbd v1.5.2PL0 Copyright (c) Steve Scherf et al.
# Submitted via: CDex 1.51
#
DISCID=e70c8111
DTITLE=Pete Alderton - Living On Love
DYEAR=2006
DGENRE=Blues
TTITLE0=Intro
TTITLE1=Evil Was Here Name
TTITLE2=Song For David
TTITLE3=Have The Roses Gone Dry
TTITLE4=I Am Sad
TTITLE5=Living On Love
TTITLE6=Jesus In A Bottle
TTITLE7=A Fool For Her Body
TTITLE8=Witching Hour
TTITLE9=Give Me All Your Love
TTITLE10=I Still Remember
TTITLE11=A Taste Of The Blues
TTITLE12=Baby I Love You
TTITLE13=The Loved
TTITLE14=Evil Was Here Name (Full Edit)
TTITLE15=Passing Ships
TTITLE16=Outro
EXTD=YEAR: 2006
EXTT0=
EXTT1=
EXTT2=
EXTT3=
EXTT4=
EXTT5=
EXTT6=
EXTT7=
EXTT8=
EXTT9=
EXTT10=
EXTT11=
EXTT12=
EXTT13=
EXTT14=
EXTT15=
EXTT16=
PLAYORDER=
